<?xml version="1.0" encoding="UTF-8" standalone="no"?>
<!DOCTYPE svg PUBLIC "-//W3C//DTD SVG 1.1//EN" "http://www.w3.org/Graphics/SVG/1.1/DTD/svg11.dtd">
<svg width="100%" height="100%" viewBox="0 0 275 275" version="1.1" xmlns="http://www.w3.org/2000/svg" xmlns:xlink="http://www.w3.org/1999/xlink" xml:space="preserve" xmlns:serif="http://www.serif.com/" style="fill-rule:evenodd;clip-rule:evenodd;stroke-linejoin:round;stroke-miterlimit:2;">
    <g id="Artboard1" transform="matrix(0.884244,0,0,0.884244,-267.042,-90.1929)">
        <rect x="302" y="102" width="311" height="311" style="fill:none;"/>
        <g transform="matrix(0.793693,0,0,0.793693,348.367,110.48)">
            <g id="BG">
                <circle cx="137.5" cy="137.5" r="137.5" style="fill:url(#_Radial1);"/>
            </g>
        </g>
        <g id="gopher" transform="matrix(1.13091,0,0,1.13091,-80.2473,-54.0655)">
            <g transform="matrix(1,0,0,1,430,178)">
                <path d="M29.1,92.9C25.3,110.3 25.5,127.9 27.1,145.5C27.6,152.1 30.5,158 33.5,163.7C34.9,166.2 35.6,168.1 34.2,170.7C32.8,173.2 31.9,176.1 34.5,178.4C37,180.8 39.8,180.1 42.7,178.8C45.4,177.6 48.2,175.4 51.3,178.1C54,177.7 53.7,175.5 54,173.7C54,172.6 53.8,171.6 52.8,170.9C49.6,170 47.3,172.4 44.6,173.3C42.9,173.8 40.6,175.4 39.6,173.7C38.3,171.7 40.9,170.3 42.2,169C44.2,167 47.1,166.3 48.7,164C49.5,161.9 48.5,160 46.7,160.4C38.5,162.2 37.2,155.5 34.4,150.6C30,141.2 30.6,131 31,121C31.3,113.3 32,105.5 33.7,97.9C34.3,94.8 34.7,91.7 34.5,88.5C34.7,82.8 37.7,78 39.1,72.6C39.7,70.4 41.1,68.2 39.3,65.9C37.1,66.9 37.3,69.1 36.5,70.6C35.8,72 36.1,74.4 33.9,74.2C31.9,74 31.3,71.5 31,69.8L30.8,69.3C30.4,67.6 26.5,66.1 27.1,70.7C26.9,75.1 31.1,78.7 29.4,83.3C28.2,84.5 27.9,85.9 28.9,87.3C29.9,89.1 29.6,90.9 29.2,92.8L29.1,92.9Z" style="fill:rgb(21,41,61);fill-rule:nonzero;"/>
            </g>
            <g transform="matrix(1,0,0,1,430,178)">
                <path d="M80.6,22L73.3,22.8C68.4,22 66.3,26.6 62.6,28.2C58.9,31.1 55.6,34.5 51.1,36.3C47.3,39.2 42.9,41.6 42.4,47.8C38.6,44.3 37.6,40.3 36.4,36.5C35.4,33.6 37.9,33.2 39.7,32.3C42.8,30.9 45.5,29.2 43.1,25.1C42.6,24.1 39.3,25.4 40.9,22.2C42.3,19.5 40.3,18.9 37.9,19C31.6,19.5 30.8,21.2 31,27.3C31.3,34.7 32,41.6 36.3,47.9C37.8,50 39.1,52.2 41.3,53.7C43,57.1 46.3,59.6 46.3,63.8C49.5,63.7 49.2,60.5 51,59.4C51.7,59.4 52.2,59.7 52.5,60.3C52.6,63.2 53.5,65.1 56.8,63.3L59.1,63.5C62.8,63.8 62.6,62.1 61,59.6C58.3,56.2 55.8,52.4 51.5,50.6C49.7,49.8 48.5,48 49.5,46C50.9,43.7 52.5,45.4 53.7,46.4C57,49 61.3,49 65,50.7C66.2,50.7 67,50.1 67.5,49.1C67.6,45 67.5,40.9 65.2,37.3C63.3,34.6 64.4,32.9 66.7,31.3C69.7,29.4 72.7,27.9 76.3,27.1C78.6,26.6 81.1,26.3 82,23.5C82,22.6 81.7,21.9 80.6,22.1M131,152.9C132.5,141.3 133,129.4 142,120.3C146.88,114.997 151.048,109.08 154.4,102.7C159.592,93.746 160.928,83.056 158.1,73.1C157.5,71 156.2,68.7 159.6,67.1C163.6,65.2 166.1,61.9 164.5,57.1C162.9,52.5 160.2,49.9 155,50.1C153.2,50.5 147.9,49.3 146,50.1C145.6,50.4 151.3,52.3 152,52.8C153.3,53.8 155,54.1 156.4,54.8C158.6,56.1 160.5,57.8 159.6,60.5C158.8,63 156.6,63.5 154.2,62.9L153.9,62.9C151.1,63.1 146.8,60.7 147.7,66.9C148,67.5 148.4,68.4 149,68.5C155.4,69.7 155.7,74.7 156.2,79.8C157.129,88.503 154.852,97.253 149.8,104.4C146.218,109.491 142.38,114.398 138.3,119.1C130.1,129.7 128.2,148.6 127.2,161.1C127.1,162.5 129.2,161.2 130.2,158.8L131.1,152.8L131,152.9Z" style="fill:rgb(19,36,51);fill-rule:nonzero;"/>
                <path d="M154.9,50.6C146.8,51.4 143.1,44.1 137.2,40.7C134,38.9 131.2,36.3 128.2,34.3C126.2,33.1 125.9,31.9 126.6,29.7C128.2,24.5 124.7,20.2 119.8,22.4C112.8,25.6 106.8,22.9 100.4,21.8C93.8,20.7 87.4,20.8 81,22.1L81.8,23.8C83.7,25.8 86,25.1 88.1,24.8C96.7,24 104.4,25.6 111.8,30.5C119.6,35.7 128.7,38.9 135.8,45.2C138.6,47.6 141.5,49.5 142.2,53.4C142.6,55.4 143.9,56.2 145.8,56C148.4,55.1 151.4,55 153.3,52.7C150.5,49.5 155.8,52.3 154.9,50.6ZM130.9,152C128.1,152.6 128.7,155.4 127.5,157.1L128.8,157.1C127.6,161.1 126.4,165.1 124.4,168.8C115.7,180.3 105.3,188.2 89.9,186.8C89,186.6 84.8,187 83.9,187.5C81.1,192.2 86,192.1 87.5,193C89,193 90.9,193.2 92,193C95.5,192.1 102.1,198.3 104.5,195C108.5,194 108.8,189.8 111.1,188C115.6,184.7 119.9,180.4 122.8,175.4C124.3,169.6 128.3,170.4 132.5,171.7C135.8,172.4 137.5,170.1 138.2,167.7C138.9,165.5 137.2,162.4 135.7,162C129,160.6 129.3,156.3 130.3,151.4" style="fill:rgb(19,36,51);fill-rule:nonzero;"/>
            </g>
            <g transform="matrix(1,0,0,1,430,178)">
                <path d="M53.2,62.3C52.8,61 54.1,59.7 53,58.5C51.8,58.5 51.4,59.9 50.4,60.5C50.2,59 50.9,57.5 50,56.3C47.4,57.3 48,60.1 46.2,62.5C48.2,56.4 43.1,54.5 40.1,52.7C41.4,55 41.9,57.5 40.1,59.7C37.7,62.5 36.4,66 34.8,69.3C34.3,70.4 34.4,72.3 32.9,72.5C30.9,72.7 31.5,70.2 30.3,69.5C29.5,72.1 30.2,74.8 32.7,75.3C34.9,75.6 35.3,73.5 36.2,71.8C37,70.4 31.7,80.2 31.9,88C34.4,86.8 34.9,84.3 35.7,82C37.9,75.2 42.3,67.3 45.5,60.4C44.7,65.7 44.9,68.7 51.5,69.4L54,68.2C56.5,66.5 56.4,64.2 55.8,60.9C54.4,60.4 54.3,62.2 53.2,62.3Z" style="fill:rgb(21,41,61);fill-rule:nonzero;"/>
            </g>
            <g transform="matrix(-1,0,0,1,503,191)">
                <path d="M-0.3,9.8C1.3,9.3 3.7,8.5 4.9,7.6C14.8,0 25.5,-1.5 36.3,6C35.3,6.8 32.3,6 33.8,8.3C34.7,9.6 37.3,10 36,12.2C34.6,14.5 32.7,11.2 31,12.1C30.5,11.8 30.4,11.9 30.3,11.4C31.7,8.5 28.6,6.6 26,6.2C20.949,5.556 15.817,6.353 11.2,8.5C6.6,10.5 12,13.5 10.5,15.8C6,15.2 4,10.4 -0.3,9.8Z" style="fill:rgb(19,36,51);fill-rule:nonzero;"/>
            </g>
            <g transform="matrix(1,0,0,1,430,178)">
                <path d="M88,193C87.7,191.5 83.6,193.2 85.4,189.9C85,188.4 83.8,187.9 82.6,187.5C76.6,186.4 70.9,184.3 65.5,181.5C60.7,179.4 57.5,174.8 52.5,173C51.7,174.3 52.5,176.2 51,177.3C61.168,186.616 74.235,192.16 88,193" style="fill:rgb(21,41,61);fill-rule:nonzero;"/>
            </g>
            <g transform="matrix(1,0,0,1,430,178)">
                <path d="M101.3,192.9C98.2,195.5 95.1,190.6 92,192.9C95.2,193.3 97.4,195 99.2,198.1C100.8,201.1 103.4,204.1 107.1,202.6C110.6,201.1 110.3,197.2 109.5,193.9C108.9,191.4 110.1,189.9 111,188C108.4,189.2 107,192.8 103.6,192.4C103.8,193.5 104.8,194.4 104.6,195.8C102.9,195.6 102.1,194.3 101.3,192.8M28.4,86L31,83.8C31.4,81.2 27.5,78.4 27,76.2C26.4,74.1 25.7,72.4 27.5,70.5C26.5,68 27.9,67.6 30,68.4C26.5,65.2 24,65.4 22.1,69.5C19.1,76.5 23.4,83 28.8,87.5L28.4,86Z" style="fill:rgb(21,41,61);fill-rule:nonzero;"/>
            </g>
            <g transform="matrix(1,0,0,1,430,178)">
                <path d="M132.5,171.5C125.5,168.2 122.9,172.5 122.8,175.5C125.1,171 128.9,170.7 133,171.5L132.5,171.5Z" style="fill:rgb(19,36,51);fill-rule:nonzero;"/>
            </g>
            <g transform="matrix(1,0,0,1,430,178)">
                <path d="M45.7,60C39.1,68.4 36.7,78.4 33,87.8C31.8,97.6 30.4,107.5 29.5,117.4C28.7,126.3 28.5,135.2 30.8,143.9C31.4,146.2 31.5,148.7 33.6,150.3L34,150L34.2,149.5C37.408,154.345 42.409,157.727 48.1,158.9C51.7,159.9 54.1,162.7 55,167.3C56.6,176 63.6,180.1 71.3,182.3C75.3,183.3 79.3,184.2 83.1,185.3C98.5,190.3 109.4,183.8 119.1,172.4C124.1,166.7 124.1,159.9 125.1,153.3C126.6,143.8 128.4,134.3 130.4,125C131,122.4 133.2,120.7 134.8,118.6C138,114.2 137.7,109.7 133.9,106.8C129.6,103.4 125.3,103.8 121.7,107.9C117.7,112.291 114.728,117.518 113,123.2C111.9,127.3 108,130.9 108.2,135.8C108.3,138.8 108.6,141.6 108.3,144.6C108.1,148.3 106.8,149 102.9,148.2C96.5,146.9 93.2,141.9 88.9,137.8C87.795,136.738 87.51,135.068 88.2,133.7C90.6,128.6 89.9,123.1 90.2,117.7C90.5,114.1 91.6,111 94.9,108.8C97.9,106.8 98.9,103.5 99.4,100.2C100,96.5 98.1,94.1 94.7,93C92.4,92.4 90.3,93 90.5,95.8C90.7,100.1 89.2,102.3 84.7,101.6C81.4,101 77.8,96 79.3,93.1C83.5,84.5 74.6,80.4 73.3,73.8C73.1,73.2 73.5,73.5 72.9,73.5C67.1,73.5 63.6,67.9 58.1,67.3C56.1,66.7 54.6,68.5 52.6,68.5C48.4,67.5 44,66.5 45.7,60Z" style="fill:rgb(121,212,253);fill-rule:nonzero;"/>
            </g>
            <g transform="matrix(1,0,0,1,430,178)">
                <path d="M63.4,73.7C63.9,74.7 65.1,75.4 66.3,74.9C71.7,72.9 72.3,76.9 73.5,80.4C74,82 74.3,84.2 75.4,84.9C79.6,87.6 78.4,89.5 76.2,93.3C74.3,96.5 77.5,100.8 80.6,103C83.6,105.2 87.4,105 90.5,102.3C91.5,101.4 91.6,100.1 91.4,98.7C91.2,97.3 88.5,94.8 92.2,94.7C95.1,94.5 97.4,96.7 97.4,99.5C97.4,102.4 96.7,106.4 94.2,107.5C87.5,110.7 87.4,116.5 87.6,122.1C87.808,126.55 87.022,130.991 85.3,135.1C84.4,137.2 84.8,138.4 86.9,140.1C91.7,144.1 95.5,149.4 102.3,151.1C106.6,152.1 109,150.7 109.2,146.2C109.2,141.8 108.5,137.5 109.4,133C109.9,130.5 110,128.3 112.7,127.2C113.9,126.7 115,125.8 114.7,124.2C113.6,115.9 120.5,112 124.9,107C126.8,104.8 131,107.2 133.3,109.3C135.6,111.5 136.6,115 134,117.3C127,123.8 127.3,132.4 125.4,140.6C123.9,147.1 122.5,153.6 122.4,160C122,171.5 113.5,177.8 106.3,182.7C101,186.4 94.6,187.6 88.8,186.4C81,184.8 71.8,182.4 65.6,179.9C59.4,177.4 55.7,173 55,165.6C54.4,160.4 49.7,159.2 46.4,158.1C40.077,156.168 34.849,151.666 32,145.7L32,151.3C32.4,155.5 35.6,158.2 37.8,161.3C39.3,163.4 41,162.5 42.7,161.9C44.6,161.1 46.7,159.9 46.6,163.7C47.5,166.5 47.9,169.6 51.2,170.8C52.2,171.6 52,172.6 51.6,173.7C54.6,177.9 58.6,181 63.5,182.7C69.5,185.6 75.5,187.7 81.9,189.2L84.9,190.4C101.7,193.3 113.2,185.3 122.3,172.4C126.3,165.6 127.1,164.4 127.9,160L128,156.4C128.6,148.4 129.3,142.1 131,135.7C132.2,130.9 133.8,126 137,120.9C140.9,115.9 143.6,110.4 146.2,105.5C151,95.9 156.2,86.3 153,74.8C152.2,72 151.2,69.7 147.8,69.1C145.4,68.7 146,68.1 148,67.3C146.3,60.4 151.6,63.6 151.6,63.6C151.2,62.3 149.7,62.1 149.4,60.7C149,59.4 149.4,57.9 148.7,56.7C148,55.5 146.7,55.2 145.6,54.7C144.5,54.4 142.1,55.2 142.7,53.3C144.5,48.3 139.9,47.1 137.7,45.3C127.1,36.6 114.5,30.9 102.4,24.6C97.2,21.8 91.1,23.5 85.4,23.6C83.7,23.6 82.1,23.8 80.4,23.9C74.7,26.4 68.1,26.6 63.4,31.4C61.3,33.4 59.2,34.5 62.5,37.2C65.8,40 64.3,44.7 66,48.2C66.7,51.4 66.9,54.8 68.6,57.8C70,58.2 70.9,57.3 71,56.3C71.6,52.8 74,50.9 76.5,49C86,39.4 99.4,37.2 108,45C119,54.7 123,65.9 114.7,78C110.127,85.02 101.463,88.274 93.4,86C83.295,83.328 75.131,75.838 71.6,66C70,64 72,60 68,59.3C65.9,60.2 65,62.3 63.2,63.6C61.6,66.2 56.5,64.2 56.2,68.6C59.1,69.7 62,70.6 63.4,73.7Z" style="fill:rgb(121,212,253);fill-rule:nonzero;"/>
            </g>
            <g transform="matrix(1,0,0,1,430,178)">
                <path d="M46.7,163.4C42.8,165.4 39.5,166.8 37.2,170.7C36.6,171.7 35.4,172.7 36.4,174C37.2,175.2 39.1,175.6 40.3,175.1C44.3,173.6 47,172.3 51,170.7C50,166.9 48.5,164.4 46.7,163.4ZM24.9,77.5C25.3,79.9 27.9,81 30,82.8C31.9,82.2 32.9,79.2 32,78C29.7,75 28.7,74 27.3,71C22.1,71.9 24.5,75.4 24.9,77.5Z" style="fill:rgb(201,184,188);fill-rule:nonzero;"/>
            </g>
            <g transform="matrix(1,0,0,1,430,178)">
                <path d="M62.9,28.7C63,27.4 64.2,27.1 65.1,26.5C67.9,24.5 67.5,22.5 64.6,21.2C58.6,18.6 52.4,17.1 45.9,18.6C42.8,19.3 40.5,20.7 43.2,24.2C45.1,27 42.8,29.7 43.2,32.5C44.5,40.1 45.2,40.5 51.6,36.3C56.6,35.5 59.2,31.3 62.9,28.7" style="fill:rgb(240,244,251);fill-rule:nonzero;"/>
            </g>
            <g transform="matrix(1,0,0,1,430,178)">
                <path d="M64.8,49.6C64.097,48.023 62.403,47.114 60.7,47.4C57.9,47.8 56.2,46.3 54.3,44.9C52.4,43.6 50.7,39.9 48.1,43.6C46.1,46.3 46.7,50 49.8,51.1C54.5,52.8 57.1,56.3 60.3,59.4C64.7,60.9 66.7,59.7 67,55.3C67,53.1 67,50.9 64.8,49.6" style="fill:rgb(201,184,188);fill-rule:nonzero;"/>
            </g>
            <g transform="matrix(1,0,0,1,430,178)">
                <path d="M50.6,37C48.3,36.3 47.8,38.5 45.2,38.2C44.8,34.4 42.9,30.7 44.2,26.5C44.5,25.2 43.8,24.5 42.6,24L43.6,24C45.1,28.5 41.9,29.6 38.8,30C36.3,30.3 34.9,30.5 35.2,34.2C35.7,39.2 37.5,43.2 40.4,47.2C42.4,49.7 44.7,49.5 44.7,47.5C44.5,41.2 49.2,38.8 52.4,35.3" style="fill:rgb(240,244,251);fill-rule:nonzero;"/>
            </g>
            <g transform="matrix(1,0,0,1,430,178)">
                <path d="M64.5,49C66.3,57.7 66.7,59.3 61,59.6C62.5,62.6 59.6,62.3 58,61.9C59,66.2 61.9,64.5 64.5,63.5C67,63.2 67.2,61.4 68,59.5C68.5,58.2 69,58 68.7,57.3C69.3,53.8 67.8,50.3 65.7,47.5C65.2,48.5 66,49.5 64.7,49.6L64.5,49Z" style="fill:rgb(40,43,58);fill-rule:nonzero;"/>
            </g>
            <g transform="matrix(1,0,0,1,430,178)">
                <path d="M65,63.7C63,62.9 60,64.6 58.7,61.6L57,61C55.3,63.4 56,67 52.9,68.6C54.6,69.6 56.1,68.2 57.7,68.1" style="fill:rgb(103,211,253);fill-rule:nonzero;"/>
            </g>
            <g transform="matrix(1,0,0,1,430,178)">
                <path d="M59.5,44.4C60.9,45.2 62.5,45.4 62.9,43.6C63.5,41 61.9,39.4 59.6,38.6C58,37.9 55.6,37.4 55.1,39.6C54.3,42.8 57.9,42.9 59.5,44.4" style="fill:rgb(107,110,127);fill-rule:nonzero;"/>
            </g>
            <g transform="matrix(1,0,0,1,430,178)">
                <path d="M50.9,57L50.7,57.5C50.4,60.1 47,63.5 50.7,64.9C53.5,65.9 52.5,61 54,59.3C53.6,57.7 52.6,56.9 50.9,57" style="fill:white;fill-rule:nonzero;"/>
            </g>
            <g transform="matrix(1,0,0,1,430,178)">
                <path d="M142.7,60C140.6,65.9 141.7,67.8 148.1,69.4C149.7,69.8 151.2,70.5 151.3,72C151.6,77.1 154.4,81.8 152.3,87.4C148.8,96.4 145.6,105.2 138.6,112.4C137.8,113.2 135,116.2 138.6,118.8C143.3,114.5 146.1,109.4 149.8,104.4C156.9,94.9 157.3,83.6 155.1,72.9C154.1,68 149.5,68.6 146.8,66.4C142.9,65.7 147.3,60.1 142.7,60ZM152.1,63.8C156.1,65.8 160.2,65.6 161.7,61.2C163.1,56.7 159.6,54.5 155.3,53.6L153,53C150.5,53.2 148.1,53.7 145.9,55C146.2,56.4 147.6,56.7 148.7,57.2C150.1,59 152.5,58.4 155.1,59.8C152.3,60.2 149.8,59.8 148.3,61.5C148.9,63.1 150.7,63.1 152,63.8L152.1,63.8ZM123.5,28.5C124.1,28.2 124.2,27.4 123.5,26.9C121.5,25.4 119.5,26 117,27.1C119.3,28.9 121.3,29.6 123.5,28.5Z" style="fill:rgb(121,212,253);fill-rule:nonzero;"/>
            </g>
            <g transform="matrix(1,0,0,1,430,178)">
                <path d="M129.2,164.1C128.5,166.9 129.8,167.8 131.5,168.5C133.2,169.2 134.8,169.5 135.7,167.3C136.9,164.4 134.5,164.5 133.2,163.9C131.8,163.3 130.2,162.1 129.2,164.1" style="fill:rgb(201,184,188);fill-rule:nonzero;"/>
            </g>
            <g transform="matrix(1,0,0,1,430,178)">
                <path d="M101.2,192.4C101.2,193.2 100.8,194.1 101.2,194.6C101.958,196.392 103.582,197.676 105.5,198C106.5,198.1 106.8,196.8 106.9,195.9C107.3,193.3 105.7,192.5 103.7,192L101.2,192.4Z" style="fill:rgb(181,164,168);fill-rule:nonzero;"/>
            </g>
            <g transform="matrix(1,0,0,1,430,178)">
                <path d="M83,189L65,182C70.338,185.768 76.519,188.172 83,189" style="fill:rgb(103,211,253);fill-rule:nonzero;"/>
            </g>
            <g transform="matrix(1,0,0,1,430,178)">
                <path d="M70.7,66C73.955,76.441 82.408,84.477 93,87.2C108.1,91.7 124.5,76.2 120.2,60.2C115.4,42.2 99,33.5 81,42.7C78.895,43.994 77.17,45.823 76,48C72.3,51.1 70.5,57.1 70.7,66Z" style="fill:rgb(19,36,51);fill-rule:nonzero;"/>
            </g>
            <g transform="matrix(1,0,0,1,430,178)">
                <path d="M91.8,131.7C88.9,133.1 90.2,135.7 91,137.3C93,141.9 96.4,145.4 101.5,146.8C105,147.8 107.8,145.4 106.8,141.8C105.5,137.6 103.5,133.6 101.8,129.4C97.7,128 98.1,130.7 98.5,133C98.8,135.5 101,137.5 100.7,140.6C96,139.1 96,133.3 91.8,131.6" style="fill:rgb(25,54,78);fill-rule:nonzero;"/>
            </g>
            <g transform="matrix(1,0,0,1,430,178)">
                <path d="M92,131.6C94.4,135.2 95.6,138 99,140.8C100.1,141.6 101.1,142.6 102.4,141.5C103.4,140.5 102.9,139.3 102.5,138.3C101.6,135.7 99.8,131.3 99.1,130C98.9,129.3 98.8,129.3 98.1,129.3C97.3,129.3 95.2,130.1 92,131.6Z" style="fill:rgb(201,184,188);fill-rule:nonzero;"/>
            </g>
            <g transform="matrix(1,0,0,1,430,178)">
                <path d="M148.3,61.6L151.5,61.6C153.9,61.4 157.7,63.5 158,59.8C158.2,57.2 154.1,56.4 151.5,56C150.5,56 149.6,56.2 148.7,56.4C147.7,58 148,59.8 148.3,61.6" style="fill:rgb(19,36,51);fill-rule:nonzero;"/>
            </g>
            <g transform="matrix(1,0,0,1,430,178)">
                <path d="M70.7,66C70.302,59.566 72.179,53.192 76,48C71.3,49.5 71.2,54.3 68.7,57.3L68,59.4C71.2,60.7 68.3,64.4 70.7,66" style="fill:rgb(121,212,253);fill-rule:nonzero;"/>
            </g>
            <g transform="matrix(1,0,0,1,430,178)">
                <path d="M76.5,54.6C71.5,68.4 79.3,77.3 92.2,83.6C101.7,88.1 113.6,81.4 117.3,70.8C120.3,62.1 112.3,46.5 103.1,43.2C92.7,39.4 80,44.9 76.5,54.6" style="fill:rgb(249,250,250);fill-rule:nonzero;"/>
            </g>
            <g transform="matrix(1,0,0,1,430,178)">
                <path d="M84.4,54.8C83.6,57.9 83.6,61.4 87.8,63.3C91.8,65.1 96.2,63.3 97.7,59.3C98.9,55.8 96.5,50.3 93.2,49.3C90,48.3 86,50.5 84.4,54.8" style="fill:rgb(14,12,22);fill-rule:nonzero;"/>
            </g>
        </g>
        <g id="yubikey" transform="matrix(-0.144211,0.193119,-0.193119,-0.144211,462.942,183.464)">
            <g transform="matrix(-4.92278,-0.00173268,0.0035688,-10.1394,525.501,2430.25)">
                <rect x="41" y="190" width="27.748" height="37" style="fill:rgb(255,169,0);"/>
            </g>
            <path d="M186.827,398.485L186.827,503.282C186.827,508.094 190.733,512 195.545,512L316.455,512C321.267,512 325.173,508.094 325.173,503.282L325.173,398.485L358.309,398.485C366.452,398.485 373.062,391.874 373.062,383.732L373.062,14.753C373.062,6.611 366.452,-0 358.309,-0L153.691,-0C145.548,-0 138.938,6.611 138.938,14.753L138.938,383.732C138.938,391.874 145.548,398.485 153.691,398.485L186.827,398.485ZM245.517,398.485L207.793,398.485L207.793,484.041C207.793,487.394 210.515,490.117 213.868,490.117L245.517,490.117L245.517,398.485ZM266.483,398.485L266.483,490.117L298.132,490.117C301.485,490.117 304.207,487.394 304.207,484.041L304.207,398.485L266.483,398.485ZM256,135.39C296.462,135.39 329.312,168.24 329.312,208.702C329.312,249.164 296.462,282.014 256,282.014C215.538,282.014 182.688,249.164 182.688,208.702C182.688,168.24 215.538,135.39 256,135.39ZM256,34.882C270.445,34.882 282.173,46.61 282.173,61.055C282.173,75.501 270.445,87.228 256,87.228C241.555,87.228 229.827,75.501 229.827,61.055C229.827,46.61 241.555,34.882 256,34.882Z" style="fill:rgb(132,189,0);"/>
            <path d="M177.443,407.869L177.443,503.282C177.443,513.273 185.554,521.384 195.545,521.384L316.455,521.384C326.446,521.384 334.557,513.273 334.557,503.282L334.557,407.869C334.557,407.869 358.309,407.869 358.309,407.869C371.631,407.869 382.447,397.054 382.447,383.732L382.447,14.753C382.447,1.431 371.631,-9.384 358.309,-9.384C358.309,-9.384 153.691,-9.384 153.691,-9.384C140.369,-9.384 129.553,1.431 129.553,14.753L129.553,383.732C129.553,397.054 140.369,407.869 153.691,407.869L177.443,407.869ZM186.827,398.485L186.827,503.282C186.827,508.094 190.733,512 195.545,512L316.455,512C321.267,512 325.173,508.094 325.173,503.282L325.173,398.485L358.309,398.485C366.452,398.485 373.062,391.874 373.062,383.732L373.062,14.753C373.062,6.611 366.452,-0 358.309,-0L153.691,-0C145.548,-0 138.938,6.611 138.938,14.753L138.938,383.732C138.938,391.874 145.548,398.485 153.691,398.485L186.827,398.485ZM256,34.882C270.445,34.882 282.173,46.61 282.173,61.055C282.173,75.501 270.445,87.228 256,87.228C241.555,87.228 229.827,75.501 229.827,61.055C229.827,46.61 241.555,34.882 256,34.882ZM256,44.266C265.266,44.267 272.789,51.789 272.789,61.055C272.789,70.321 265.266,77.844 256,77.844C246.734,77.844 239.211,70.321 239.211,61.055C239.211,51.789 246.734,44.267 256,44.266L256,44.266ZM256,135.39C296.462,135.39 329.312,168.24 329.312,208.702C329.312,249.164 296.462,282.014 256,282.014C215.538,282.014 182.688,249.164 182.688,208.702C182.688,168.24 215.538,135.39 256,135.39ZM256,144.775C291.283,144.775 319.928,173.42 319.928,208.702C319.928,243.985 291.283,272.63 256,272.63C220.717,272.63 192.072,243.985 192.072,208.702C192.072,173.42 220.717,144.775 256,144.775ZM266.483,398.485L266.483,490.117L298.132,490.117C301.485,490.117 304.207,487.394 304.207,484.041L304.207,398.485L266.483,398.485ZM294.823,480.732L275.867,480.732L275.867,407.869L294.823,407.869L294.823,480.732ZM245.517,398.485L207.793,398.485L207.793,484.041C207.793,487.394 210.515,490.117 213.868,490.117L245.517,490.117L245.517,398.485ZM217.177,480.732L217.177,407.869L236.133,407.869L236.133,480.732L217.177,480.732Z" style="fill:rgb(14,12,22);"/>
            <g transform="matrix(2.75305,0,0,2.75305,167.907,122.378)">
                <path d="M32.225,31.1L37.745,15.437L45.73,15.437L32.27,48.563L23.835,48.563L27.697,39.488L18.267,15.461L26.417,15.461L32.225,31.1Z" style="fill-rule:nonzero;"/>
            </g>
        </g>
    </g>
    <defs>
        <radialGradient id="_Radial1" cx="0" cy="0" r="1" gradientUnits="userSpaceOnUse" gradientTransform="matrix(-113.5,78.5171,-78.5171,-113.5,137.5,134.483)"><stop offset="0" style="stop-color:rgb(101,101,101);stop-opacity:0.29"/><stop offset="0.56" style="stop-color:rgb(144,144,144);stop-opacity:0.09"/><stop offset="1" style="stop-color:rgb(163,163,163);stop-opacity:0"/></radialGradient>
    </defs>
</svg>
